<?xml version="1.0" encoding="UTF-8"?>
<!DOCTYPE svg PUBLIC "-//W3C//DTD SVG 1.1//EN" "http://www.w3.org/Graphics/SVG/1.1/DTD/svg11.dtd">
<!-- Creator: CorelDRAW -->
<svg xmlns="http://www.w3.org/2000/svg" xml:space="preserve" width="130px" height="40px" version="1.1" style="shape-rendering:geometricPrecision; text-rendering:geometricPrecision; image-rendering:optimizeQuality; fill-rule:evenodd; clip-rule:evenodd"
viewBox="0 0 130 40"
 xmlns:xlink="http://www.w3.org/1999/xlink"
 xmlns:xodm="http://www.corel.com/coreldraw/odm/2003">
 <defs>
  <style type="text/css">
   <![CDATA[
    .fil0 {fill:#0E41D2;fill-rule:nonzero}
   ]]>
  </style>
 </defs>
 <g id="Слой_x0020_1">
  <metadata id="CorelCorpID_0Corel-Layer"/>
  <g id="Group_x0020_2">
   <path id="Vector" class="fil0" d="M71.84 24.51c-2.16,0 -3.79,-1.8 -3.79,-3.97 0,-2.16 1.63,-3.96 3.79,-3.96 2.17,0 3.98,1.8 3.98,3.96 0,2.17 -1.81,3.97 -3.98,3.97zm0.1 -11c-3.8,0 -6.87,3.07 -6.87,7.03 0,3.97 3.07,6.85 6.87,6.85 3.79,0 6.86,-3.06 6.86,-6.85 0,-3.78 -3.07,-7.03 -6.86,-7.03z"/>
   <path id="Vector_2" class="fil0" d="M56.9 24.67c-2.25,0 -3.94,-1.88 -3.94,-4.13 0,-2.25 1.69,-4.13 3.94,-4.13 2.06,0 3.74,1.88 3.74,4.13 0,2.25 -1.68,4.13 -3.74,4.13zm0.4 -11.16c-1.71,0 -3.27,0.8 -4.36,2.15l-0.13 -1.79 -2.92 0 0 17.85 3.25 0 0 -5.05 -0.15 -1.34c1.09,1.29 2.63,2.06 4.31,2.06 3.43,0 6.32,-3.06 6.32,-6.85 0,-3.78 -2.89,-7.03 -6.32,-7.03l0 0z"/>
   <path id="Vector_3" class="fil0" d="M29.3 16.58c1.44,0 2.7,0.9 3.43,2.16l2.71 -1.44c-1.09,-2.35 -3.44,-3.79 -6.15,-3.79 -3.79,0 -6.86,3.07 -6.86,7.03 0,3.97 3.07,6.85 6.86,6.85 2.71,0 5.06,-1.44 6.15,-3.78l-2.71 -1.45c-0.73,1.27 -1.99,2.17 -3.43,2.17 -1.99,0 -3.8,-1.8 -3.8,-3.79 0,-2.16 1.81,-3.96 3.8,-3.96z"/>
   <polygon id="Vector_4" class="fil0" points="36.34,16.76 40.68,16.76 40.68,27.03 43.75,27.03 43.75,16.76 48.09,16.76 48.09,13.87 36.34,13.87 "/>
   <path id="Vector_5" class="fil0" d="M11.41 24.15c-3.25,0 -6.15,-2.89 -6.15,-6.31 0,-3.25 2.9,-6.13 6.15,-6.13 3.43,0 6.14,2.88 6.14,6.13 0,3.42 -2.71,6.31 -6.14,6.31zm0 -15.87c-5.24,0 -9.4,4.33 -9.4,9.56 0,5.22 4.16,9.55 9.4,9.55 5.24,0 9.57,-4.15 9.57,-9.55 0,-5.41 -4.15,-9.56 -9.57,-9.56z"/>
   <path id="Vector_6" class="fil0" d="M125.73 27.39c1.2,0 2.17,-0.97 2.17,-2.16 0,-1.2 -0.97,-2.17 -2.17,-2.17 -1.2,0 -2.17,0.97 -2.17,2.17 0,1.19 0.97,2.16 2.17,2.16z"/>
   <polygon id="Vector_7" class="fil0" points="127.09,21.08 127.99,8.28 123.47,8.28 124.38,21.08 "/>
   <path id="Vector_8" class="fil0" d="M116.57 20.36c1.08,-0.18 1.8,-0.72 2.53,-2.52l1.44 -3.97 -3.16 0 -1.27 3.79c-0.36,1.08 -0.99,1.44 -1.89,1.44l-1.54 0 0 -5.23 -3.16 0 0 13.16 3.16 0 0 -5.23 1.36 0c1.08,0 1.53,0.36 2.07,1.44l1.63 3.79 3.52 0 -1.99 -4.33c-0.72,-1.44 -1.62,-2.16 -2.71,-2.34l0.01 0z"/>
   <path id="Vector_9" class="fil0" d="M87.3 24.51l-3.44 0 0 -3.07 3.62 0c0.9,0 1.63,0.54 1.63,1.45 0,1.08 -0.73,1.62 -1.81,1.62l0 0zm-3.44 -8.1l3.26 0c1.08,0 1.62,0.38 1.62,1.34 0,0.58 -0.18,1.53 -1.44,1.53l-3.44 0 0 -2.87zm6.17 3.98l0 -0.06c0,0 1.78,-0.74 1.78,-3.03 0,-2.06 -1.62,-3.43 -4.51,-3.43l-6.51 0 0 13.16 6.82 0c2.89,0 4.74,-1.27 4.74,-3.72 0,-2.46 -2.32,-2.92 -2.32,-2.92l0 0z"/>
   <path id="Vector_10" class="fil0" d="M100.57 24.51c-2.16,0 -3.79,-1.8 -3.79,-3.97 0,-2.16 1.63,-3.96 3.79,-3.96 2.17,0 3.98,1.8 3.98,3.96 0,2.17 -1.81,3.97 -3.98,3.97zm0.1 -11c-3.8,0 -6.87,3.07 -6.87,7.03 0,3.97 3.07,6.85 6.87,6.85 3.79,0 6.86,-3.06 6.86,-6.85 0,-3.78 -3.07,-7.03 -6.86,-7.03z"/>
  </g>
 </g>
</svg>
